<svg width="22" height="20" viewBox="0 0 22 20" fill="none" xmlns="http://www.w3.org/2000/svg">
<path d="M21.1943 7.53969L14.2413 1.21802C13.3808 0.438013 12.2152 0 11 0C9.78482 0 8.61921 0.438013 7.75868 1.21802L0.805761 7.53969C0.549484 7.77118 0.3463 8.0466 0.207987 8.35001C0.0696733 8.65341 -0.00101787 8.97876 1.10729e-05 9.30719V17.488C1.10729e-05 18.1511 0.289742 18.7869 0.805467 19.2558C1.32119 19.7246 2.02067 19.988 2.75001 19.988H19.25C19.9794 19.988 20.6788 19.7246 21.1946 19.2558C21.7103 18.7869 22 18.1511 22 17.488V9.30719C22.001 8.97876 21.9303 8.65341 21.792 8.35001C21.6537 8.0466 21.4505 7.77118 21.1943 7.53969ZM13.75 18.3214H8.25001V15.043C8.25001 14.38 8.53974 13.7441 9.05547 13.2753C9.57119 12.8064 10.2707 12.543 11 12.543C11.7294 12.543 12.4288 12.8064 12.9446 13.2753C13.4603 13.7441 13.75 14.38 13.75 15.043V18.3214ZM20.1667 17.488C20.1667 17.709 20.0701 17.921 19.8982 18.0773C19.7263 18.2336 19.4931 18.3214 19.25 18.3214H15.5833V15.043C15.5833 13.938 15.1005 12.8781 14.2409 12.0967C13.3814 11.3153 12.2156 10.8764 11 10.8764C9.78444 10.8764 8.61865 11.3153 7.75911 12.0967C6.89956 12.8781 6.41668 13.938 6.41668 15.043V18.3214H2.75001C2.5069 18.3214 2.27374 18.2336 2.10183 18.0773C1.92992 17.921 1.83334 17.709 1.83334 17.488V9.30719C1.83419 9.08634 1.93068 8.87468 2.10193 8.71802L9.05485 2.39885C9.57157 1.9313 10.271 1.66881 11 1.66881C11.7291 1.66881 12.4285 1.9313 12.9452 2.39885L19.8981 8.72052C20.0687 8.87656 20.1651 9.0872 20.1667 9.30719V17.488Z" fill="white"/>
</svg>
