<svg width="30" height="30" viewBox="0 0 30 30" fill="none" xmlns="http://www.w3.org/2000/svg">
<path d="M12.0888 5.17001C12.1576 4.44543 12.4942 3.77256 13.0326 3.28286C13.5711 2.79315 14.2728 2.52179 15.0006 2.52179C15.7285 2.52179 16.4302 2.79315 16.9686 3.28286C17.5071 3.77256 17.8436 4.44543 17.9125 5.17001C17.9539 5.63807 18.1075 6.08928 18.3602 6.48543C18.6129 6.88158 18.9573 7.21102 19.3643 7.44585C19.7713 7.68069 20.2289 7.81401 20.6984 7.83453C21.1678 7.85505 21.6353 7.76218 22.0613 7.56376C22.7227 7.26348 23.4721 7.22003 24.1638 7.44186C24.8554 7.6637 25.4398 8.13494 25.8032 8.76389C26.1665 9.39283 26.2829 10.1345 26.1296 10.8445C25.9763 11.5545 25.5643 12.182 24.9738 12.605C24.5892 12.8748 24.2754 13.2333 24.0587 13.65C23.842 14.0668 23.7288 14.5296 23.7288 14.9994C23.7288 15.4691 23.842 15.932 24.0587 16.3487C24.2754 16.7655 24.5892 17.1239 24.9738 17.3938C25.5643 17.8167 25.9763 18.4443 26.1296 19.1543C26.2829 19.8643 26.1665 20.6059 25.8032 21.2349C25.4398 21.8638 24.8554 22.3351 24.1638 22.5569C23.4721 22.7787 22.7227 22.7353 22.0613 22.435C21.6353 22.2366 21.1678 22.1437 20.6984 22.1642C20.2289 22.1848 19.7713 22.3181 19.3643 22.5529C18.9573 22.7877 18.6129 23.1172 18.3602 23.5133C18.1075 23.9095 17.9539 24.3607 17.9125 24.8288C17.8436 25.5533 17.5071 26.2262 16.9686 26.7159C16.4302 27.2056 15.7285 27.477 15.0006 27.477C14.2728 27.477 13.5711 27.2056 13.0326 26.7159C12.4942 26.2262 12.1576 25.5533 12.0888 24.8288C12.0474 24.3605 11.8939 23.9091 11.6411 23.5128C11.3883 23.1166 11.0437 22.787 10.6366 22.5522C10.2294 22.3173 9.7716 22.184 9.30199 22.1636C8.83238 22.1432 8.36477 22.2363 7.93876 22.435C7.27738 22.7353 6.52792 22.7787 5.83626 22.5569C5.14461 22.3351 4.56023 21.8638 4.19687 21.2349C3.83351 20.6059 3.71716 19.8643 3.87046 19.1543C4.02377 18.4443 4.43577 17.8167 5.02626 17.3938C5.41079 17.1239 5.72468 16.7655 5.94137 16.3487C6.15807 15.932 6.27121 15.4691 6.27121 14.9994C6.27121 14.5296 6.15807 14.0668 5.94137 13.65C5.72468 13.2333 5.41079 12.8748 5.02626 12.605C4.43659 12.1818 4.02533 11.5545 3.87239 10.845C3.71945 10.1355 3.83577 9.39443 4.19874 8.7659C4.56171 8.13736 5.1454 7.66623 5.83638 7.44406C6.52735 7.22189 7.27624 7.26455 7.93751 7.56376C8.36346 7.76218 8.83094 7.85505 9.30039 7.83453C9.76984 7.81401 10.2274 7.68069 10.6344 7.44585C11.0414 7.21102 11.3859 6.88158 11.6386 6.48543C11.8913 6.08928 12.0449 5.63807 12.0863 5.17001M18.75 15C18.75 17.0711 17.0711 18.75 15 18.75C12.9289 18.75 11.25 17.0711 11.25 15C11.25 12.9289 12.9289 11.25 15 11.25C17.0711 11.25 18.75 12.9289 18.75 15Z" stroke="#1F2937" stroke-width="2" stroke-linecap="round" stroke-linejoin="round"/>
</svg>
